<?xml version="1.0" encoding="UTF-8"?>
<svg version="1.1" xmlns="http://www.w3.org/2000/svg" width="143" height="134">
<path d="M0 0 C47.19 0 94.38 0 143 0 C143 44.22 143 88.44 143 134 C95.81 134 48.62 134 0 134 C0 89.78 0 45.56 0 0 Z " fill="#F89E16" transform="translate(0,0)"/>
<path d="M0 0 C47.19 0 94.38 0 143 0 C143 44.22 143 88.44 143 134 C95.81 134 48.62 134 0 134 C0 89.78 0 45.56 0 0 Z M33 17 C32.29617187 17.52207031 31.59234375 18.04414063 30.8671875 18.58203125 C22.34052207 25.45352045 15.72771313 34.732948 12 45 C11.73469482 45.72799805 11.46938965 46.45599609 11.19604492 47.20605469 C9.01116014 53.7792192 8.57379507 59.729933 8.6875 66.625 C8.68427734 67.60984375 8.68105469 68.5946875 8.67773438 69.609375 C8.80052421 86.35344312 15.90216241 100.79074421 27 113 C40.98989425 126.07252413 56.51270018 130.7918518 75.34106445 130.51635742 C89.67861653 130.00198021 99.57872663 125.17249144 111 117 C111.69996094 116.51789063 112.39992188 116.03578125 113.12109375 115.5390625 C124.72495491 106.69547317 132.84221116 90.10861936 135 76 C136.48965566 58.52379584 132.5940236 42.42079128 121.93359375 28.25390625 C113.92298487 18.83893302 104.40363638 12.58276976 93 8 C91.82050781 7.47019531 91.82050781 7.47019531 90.6171875 6.9296875 C71.63081955 0.1852762 48.66154269 5.16398167 33 17 Z " fill="#191816" transform="translate(0,0)"/>
<path d="M0 0 C0.9583374 0.00523682 1.9166748 0.01047363 2.90405273 0.01586914 C4.45576172 0.02070313 4.45576172 0.02070313 6.03881836 0.02563477 C7.12743164 0.03401367 8.21604492 0.04239258 9.33764648 0.05102539 C10.97636719 0.05779297 10.97636719 0.05779297 12.64819336 0.06469727 C15.35723144 0.07652713 18.06616248 0.09300996 20.77514648 0.11352539 C18.41403296 8.92992592 15.01628747 17.29987433 11.58764648 25.73852539 C11.02278853 27.13810166 10.45833243 28.53784018 9.89428711 29.93774414 C8.52659078 33.33188042 7.1507356 36.72253827 5.77514648 40.11352539 C11.71514648 40.11352539 17.65514648 40.11352539 23.77514648 40.11352539 C22.15821506 43.34738825 21.14565527 45.00961835 18.76342773 47.50415039 C18.17392334 48.12717041 17.58441895 48.75019043 16.97705078 49.39208984 C16.35354736 50.04266357 15.73004395 50.6932373 15.08764648 51.36352539 C13.80811552 52.71555286 12.52945881 54.06840827 11.25170898 55.42211914 C10.64359375 56.0652002 10.03547852 56.70828125 9.40893555 57.37084961 C7.01745426 59.92171533 4.72013198 62.54617685 2.43920898 65.19555664 C-1.05431394 69.22212883 -4.65076367 73.15852348 -8.22485352 77.11352539 C-9.56700816 73.08706144 -8.50046149 71.25326724 -7.13500977 67.25805664 C-6.79994667 66.26560188 -6.79994667 66.26560188 -6.45811462 65.25309753 C-5.74292569 63.14110856 -5.01533238 61.03363582 -4.28735352 58.92602539 C-3.80020226 57.49466465 -3.31386404 56.06302692 -2.82836914 54.63110352 C-1.63810282 51.12134386 -0.4311616 47.61796699 0.77514648 44.11352539 C-4.17485352 44.11352539 -9.12485352 44.11352539 -14.22485352 44.11352539 C-4.6308348 0.23629301 -4.6308348 0.23629301 0 0 Z " fill="#FEFCF8" transform="translate(62.224853515625,27.886474609375)"/>
</svg>
